<svg width="32" height="37" viewBox="0 0 32 37" fill="none" xmlns="http://www.w3.org/2000/svg">
<path d="M22.8924 11.9751C22.8011 11.9603 22.7098 11.9603 22.6185 11.9751C20.5966 11.901 18.9922 10.0202 18.9922 7.70979C18.9922 5.35499 20.6749 3.42969 22.7619 3.42969C24.836 3.42969 26.5317 5.34018 26.5317 7.70979C26.5186 10.0202 24.9142 11.901 22.8924 11.9751Z" fill="white"/>
<path d="M27.1452 22.2378C25.6842 23.3486 23.6363 23.7633 21.7449 23.4819C22.2406 22.2674 22.5015 20.9197 22.5145 19.498C22.5145 18.017 22.2275 16.61 21.6797 15.3808C23.6102 15.0846 25.6581 15.4993 27.1321 16.61C29.1931 18.1503 29.1931 20.6828 27.1452 22.2378Z" fill="white"/>
<path d="M8.42705 11.9751C8.51835 11.9603 8.60966 11.9603 8.70097 11.9751C10.7228 11.901 12.3272 10.0202 12.3272 7.70979C12.3272 5.34018 10.6445 3.42969 8.55749 3.42969C6.48347 3.42969 4.80078 5.34018 4.80078 7.70979C4.80078 10.0202 6.40521 11.901 8.42705 11.9751Z" fill="white"/>
<path d="M8.5705 19.4983C8.5705 20.9348 8.84443 22.2973 9.3401 23.5266C7.50088 23.7487 5.5834 23.3044 4.17463 22.2529C2.11366 20.6979 2.11366 18.1653 4.17463 16.6103C5.57035 15.544 7.54002 15.1145 9.39228 15.3514C8.85747 16.5955 8.5705 18.0024 8.5705 19.4983Z" fill="white"/>
<path d="M15.8345 23.9719C15.7301 23.957 15.6127 23.957 15.4953 23.9719C13.0952 23.883 11.1777 21.6467 11.1777 18.892C11.1908 16.0781 13.1865 13.7974 15.678 13.7974C18.1563 13.7974 20.1651 16.0781 20.1651 18.892C20.1521 21.6467 18.2476 23.883 15.8345 23.9719Z" fill="white"/>
<path d="M11.5964 27.0366C9.62673 28.5325 9.62673 30.9909 11.5964 32.4719C13.84 34.1751 17.5184 34.1751 19.762 32.4719C21.7317 30.9761 21.7317 28.5176 19.762 27.0366C17.5315 25.3335 13.853 25.3335 11.5964 27.0366Z" fill="white"/>
</svg>
